name Walk3.mot
datacolumns 19
datarows 20
range 1.68500000 1.78000000
endheader

                time	   L_ground_force_vx	   L_ground_force_vy	   L_ground_force_vz	   L_ground_force_px	   L_ground_force_py	   L_ground_force_pz	   R_ground_force_vx	   R_ground_force_vy	   R_ground_force_vz	   R_ground_force_px	   R_ground_force_py	   R_ground_force_pz	   L_ground_torque_x	   L_ground_torque_y	   L_ground_torque_z	   R_ground_torque_x	   R_ground_torque_y	   R_ground_torque_z	
          1.68500000	          0.06305425	          0.14593779	         -0.00964796	         -0.00032200	          0.00000000	         -0.00004893	        -26.36263282	        697.81921119	        -41.43509139	          0.28545171	          0.00000000	          0.09106692	          0.00000000	         -0.00024605	          0.00000000	          0.00000000	          4.96377568	          0.00000000	
          1.69000000	          0.04617431	          0.10587583	         -0.00921448	         -0.00029475	          0.00000000	         -0.00004540	        -25.36216339	        693.17658401	        -41.17084566	          0.28783537	          0.00000000	          0.09119052	          0.00000000	         -0.00023170	          0.00000000	          0.00000000	          4.81504480	          0.00000000	
          1.69500000	          0.03169771	          0.07181137	         -0.00820774	         -0.00025396	          0.00000000	         -0.00003954	        -24.42712951	        688.84127309	        -41.03014930	          0.29019143	          0.00000000	          0.09130704	          0.00000000	         -0.00020417	          0.00000000	          0.00000000	          4.69162848	          0.00000000	
          1.70000000	          0.01990724	          0.04428709	         -0.00691301	         -0.00020772	          0.00000000	         -0.00003265	        -23.54282372	        684.84255982	        -41.00591563	          0.29251615	          0.00000000	          0.09141353	          0.00000000	         -0.00017037	          0.00000000	          0.00000000	          4.58981040	          0.00000000	
          1.70500000	          0.01077182	          0.02313372	         -0.00553598	         -0.00016164	          0.00000000	         -0.00002566	        -22.69152382	        681.21918571	        -41.08688215	          0.29480563	          0.00000000	          0.09150701	          0.00000000	         -0.00013522	          0.00000000	          0.00000000	          4.50519630	          0.00000000	
          1.71000000	          0.00406153	          0.00773888	         -0.00421510	         -0.00011930	          0.00000000	         -0.00001914	        -21.85397794	        678.01487524	        -41.25745537	          0.29705294	          0.00000000	          0.09158384	          0.00000000	         -0.00010199	          0.00000000	          0.00000000	          4.43305227	          0.00000000	
          1.71500000	         -0.00056287	         -0.00274559	         -0.00303467	         -0.00008272	          0.00000000	         -0.00001345	        -21.01108835	        675.27397421	        -41.49879038	          0.29924878	          0.00000000	          0.09164039	          0.00000000	         -0.00007261	          0.00000000	          0.00000000	          4.36874668	          0.00000000	
          1.72000000	         -0.00348389	         -0.00925193	         -0.00203768	         -0.00005272	          0.00000000	         -0.00000873	        -20.14492381	        673.04011266	        -41.78989930	          0.30138375	          0.00000000	          0.09167344	          0.00000000	         -0.00004803	          0.00000000	          0.00000000	          4.30801242	          0.00000000	
          1.72500000	         -0.00508155	         -0.01269260	         -0.00123718	         -0.00002931	          0.00000000	         -0.00000502	        -19.24007319	        671.35792862	        -42.10955363	          0.30345002	          0.00000000	          0.09168023	          0.00000000	         -0.00002846	          0.00000000	          0.00000000	          4.24708766	          0.00000000	
          1.73000000	         -0.00570421	         -0.01389521	         -0.00062598	         -0.00001198	          0.00000000	         -0.00000224	        -18.28466858	        670.27366222	        -42.43805622	          0.30544224	          0.00000000	          0.09165984	          0.00000000	         -0.00001367	          0.00000000	          0.00000000	          4.18225943	          0.00000000	
          1.73500000	         -0.00565237	         -0.01356747	         -0.00018453	          0.00000008	          0.00000000	         -0.00000028	        -17.27018584	        669.83444152	        -42.76040537	          0.30735841	          0.00000000	          0.09161267	          0.00000000	         -0.00000310	          0.00000000	          0.00000000	          4.10997905	          0.00000000	
          1.74000000	         -0.00517210	         -0.01228428	          0.00011316	          0.00000781	          0.00000000	          0.00000100	        -16.19211135	        670.08689671	        -43.06830888	          0.30920102	          0.00000000	          0.09154002	          0.00000000	          0.00000393	          0.00000000	          0.00000000	          4.02730473	          0.00000000	
          1.74500000	         -0.00445506	         -0.01048986	          0.00029511	          0.00001215	          0.00000000	          0.00000174	        -15.04964123	        671.07069192	        -43.36032789	          0.31097683	          0.00000000	          0.09144361	          0.00000000	          0.00000812	          0.00000000	          0.00000000	          3.93210217	          0.00000000	
          1.75000000	         -0.00364289	         -0.00850951	          0.00038846	          0.00001397	          0.00000000	          0.00000208	        -13.84572088	        672.81206688	        -43.64113915	          0.31269676	          0.00000000	          0.09132664	          0.00000000	          0.00001017	          0.00000000	          0.00000000	          3.82316983	          0.00000000	
          1.75500000	         -0.00283396	         -0.00656655	          0.00041759	          0.00001403	          0.00000000	          0.00000213	        -12.58669216	        675.31759516	        -43.91985138	          0.31437497	          0.00000000	          0.09119323	          0.00000000	          0.00001067	          0.00000000	          0.00000000	          3.69966575	          0.00000000	
          1.76000000	         -0.00209107	         -0.00480123	          0.00040325	          0.00001296	          0.00000000	          0.00000199	        -11.28107446	        678.57133157	        -44.20842684	          0.31602579	          0.00000000	          0.09104707	          0.00000000	          0.00001016	          0.00000000	          0.00000000	          3.56090648	          0.00000000	
          1.76500000	         -0.00144929	         -0.00328945	          0.00036216	          0.00001125	          0.00000000	          0.00000175	         -9.93844505	        682.53620829	        -44.52060029	          0.31766217	          0.00000000	          0.09089191	          0.00000000	          0.00000902	          0.00000000	          0.00000000	          3.40666115	          0.00000000	
          1.77000000	         -0.00092311	         -0.00205981	          0.00030717	          0.00000926	          0.00000000	          0.00000145	         -8.56795315	        687.15461938	        -44.87168084	          0.31929614	          0.00000000	          0.09073012	          0.00000000	          0.00000758	          0.00000000	          0.00000000	          3.23735977	          0.00000000	
          1.77500000	         -0.00051268	         -0.00110837	          0.00024761	          0.00000726	          0.00000000	          0.00000115	         -7.17796083	        692.35109977	        -45.27719495	          0.32093744	          0.00000000	          0.09056338	          0.00000000	          0.00000606	          0.00000000	          0.00000000	          3.05374896	          0.00000000	
          1.78000000	         -0.00020892	         -0.00041057	          0.00018983	          0.00000540	          0.00000000	          0.00000086	         -5.77513318	        698.03313081	        -45.75169163	          0.32259124	          0.00000000	          0.09039269	          0.00000000	          0.00000460	          0.00000000	          0.00000000	          2.85619312	          0.00000000	
